<?xml version="1.0" standalone="no"?>
<!DOCTYPE svg PUBLIC "-//W3C//DTD SVG 20010904//EN"
 "http://www.w3.org/TR/2001/REC-SVG-20010904/DTD/svg10.dtd">
<svg version="1.0" xmlns="http://www.w3.org/2000/svg"
 width="700.000000pt" height="700.000000pt" viewBox="0 0 700.000000 700.000000"
 preserveAspectRatio="xMidYMid meet">
<metadata>
Created by potrace 1.11, written by Peter Selinger 2001-2013
</metadata>
<g transform="translate(0.000000,700.000000) scale(0.100000,-0.100000)"
fill="#000000" stroke="none">
<path d="M2835 6872 c-18 -129 -77 -282 -155 -399 -24 -36 -40 -51 -50 -47
-31 12 -197 54 -235 60 -56 8 -60 14 -33 38 41 36 103 120 132 180 26 52 56
145 56 172 0 6 -35 16 -77 22 -86 13 -119 15 -110 6 9 -9 -31 -114 -64 -166
-43 -67 -121 -134 -198 -171 -57 -27 -79 -31 -168 -35 -125 -5 -211 17 -294
77 -91 65 -168 175 -184 264 -4 22 -13 37 -22 37 -29 0 -158 -23 -165 -29 -13
-11 20 -120 58 -192 20 -37 60 -94 90 -127 30 -33 54 -62 54 -65 0 -3 -21 -8
-47 -11 -27 -4 -81 -16 -121 -27 -40 -11 -82 -22 -93 -24 -10 -2 -23 -7 -29
-10 -21 -13 -127 169 -165 283 -9 30 -23 86 -29 125 l-12 72 -55 1 c-30 0 -71
-1 -91 -4 -35 -4 -38 -7 -38 -37 0 -48 43 -211 79 -297 17 -41 51 -108 75
-148 l44 -73 -46 -24 c-168 -89 -286 -211 -328 -336 -118 -354 329 -684 1025
-755 87 -9 446 -9 541 0 453 43 851 226 983 451 125 212 28 452 -246 612 -47
28 -86 54 -87 58 0 5 13 27 28 50 67 99 139 287 157 412 4 28 9 58 11 68 1 9
-3 17 -9 17 -47 2 -154 12 -164 15 -8 3 -14 -13 -18 -43z m-729 -576 c192 -91
298 -301 260 -516 -13 -70 -73 -179 -131 -235 -144 -142 -348 -177 -530 -90
-293 140 -356 529 -124 754 75 73 167 117 264 128 28 3 51 6 52 8 2 1 33 -2
70 -7 41 -5 97 -22 139 -42z m-716 -10 c0 -3 -14 -25 -30 -50 -142 -210 -145
-494 -7 -714 28 -42 35 -68 17 -57 -5 3 -18 8 -27 10 -178 39 -372 133 -472
228 -161 153 -90 332 183 466 92 45 224 94 285 106 13 2 26 7 29 10 6 6 22 7
22 1z m1235 -58 c307 -111 458 -282 385 -434 -20 -41 -107 -134 -147 -157 -60
-35 -170 -90 -216 -108 -77 -31 -227 -69 -227 -58 0 5 4 9 9 9 14 0 108 199
116 245 14 74 15 90 15 155 0 126 -30 230 -97 338 -18 29 -33 56 -33 61 0 9
104 -18 195 -51z"/>
<path d="M1822 6141 c-65 -22 -93 -41 -136 -94 -112 -137 -58 -357 106 -427
65 -28 116 -32 184 -14 68 17 110 45 151 98 43 56 61 113 58 185 -7 182 -191
310 -363 252z m129 -186 c31 -16 49 -49 49 -89 0 -29 -40 -73 -73 -81 -36 -9
-93 20 -107 55 -18 43 3 98 44 116 40 17 51 17 87 -1z"/>
<path d="M4065 6905 c-98 -11 -97 -10 -83 -75 4 -19 9 -49 12 -66 18 -98 80
-253 143 -352 18 -29 33 -56 33 -60 -1 -4 -40 -29 -87 -57 -96 -55 -204 -155
-245 -225 -144 -248 -4 -509 365 -680 141 -65 360 -126 527 -146 25 -3 56 -8
70 -10 49 -9 486 -12 555 -4 424 50 727 166 911 348 240 238 168 525 -184 732
-65 38 -71 44 -59 59 26 30 84 137 112 206 33 84 75 245 75 291 0 31 -3 34
-30 34 -16 0 -32 1 -35 2 -8 3 -115 14 -115 12 0 -20 -34 -166 -49 -214 -23
-69 -86 -192 -126 -244 l-25 -33 -82 22 c-44 13 -111 29 -147 36 -36 7 -68 14
-70 15 -2 2 21 31 52 64 61 68 108 150 138 241 24 71 20 89 -18 89 -15 0 -54
6 -86 14 l-57 13 -14 -47 c-46 -155 -152 -268 -302 -321 -49 -17 -77 -20 -169
-17 -99 3 -117 7 -179 36 -92 44 -186 137 -226 226 -17 37 -31 78 -32 91 -2
24 -5 26 -43 21 -101 -12 -137 -20 -142 -32 -7 -19 22 -111 57 -178 35 -66 79
-126 124 -168 33 -31 34 -30 -58 -48 -33 -7 -94 -22 -137 -35 -42 -12 -81 -19
-86 -16 -17 12 -85 123 -112 184 -37 81 -49 121 -69 220 l-17 82 -90 -10z
m1110 -570 c28 -4 82 -22 121 -40 333 -159 355 -630 38 -820 -232 -140 -537
-52 -657 190 -36 72 -49 129 -49 215 0 224 163 416 387 455 38 7 79 11 90 9
11 -1 43 -5 70 -9z m-608 -67 c-31 -44 -63 -103 -85 -158 -73 -185 -53 -405
53 -575 17 -27 34 -55 38 -61 9 -16 -52 -2 -168 38 -331 113 -496 292 -412
447 67 125 252 239 494 305 49 14 90 25 92 25 2 1 -4 -9 -12 -21z m1149 -9
c151 -40 311 -121 400 -201 62 -58 91 -107 99 -169 13 -101 -93 -221 -269
-309 -89 -44 -252 -102 -324 -115 l-25 -4 20 22 c47 51 105 177 120 258 10 56
9 222 -1 274 -12 59 -63 177 -96 221 -34 45 -37 59 -12 49 9 -4 49 -15 88 -26z"/>
<path d="M5040 6150 c-123 -23 -218 -132 -224 -257 -4 -79 17 -142 66 -197 57
-66 125 -98 208 -99 242 -3 373 279 215 460 -67 76 -167 111 -265 93z m100
-195 c40 -21 56 -72 36 -119 -11 -27 -23 -37 -54 -47 -36 -10 -45 -9 -74 8
-61 35 -60 129 2 160 33 17 55 16 90 -2z"/>
<path d="M3338 4935 c-2 -2 -43 -6 -93 -10 -49 -4 -92 -8 -95 -10 -3 -2 -30
-6 -60 -9 -30 -3 -98 -15 -150 -26 -518 -113 -971 -357 -1340 -721 -272 -268
-441 -516 -610 -894 -73 -163 -162 -494 -186 -690 -2 -22 -6 -56 -9 -75 -2
-19 -7 -90 -10 -157 l-6 -123 95 0 96 0 1 73 c0 39 2 83 3 97 2 14 7 57 10 97
4 39 9 82 11 95 19 114 30 167 51 253 27 108 91 304 105 320 5 5 9 15 9 22 0
28 132 286 204 398 239 373 576 682 967 887 175 92 453 195 604 224 11 2 55
11 97 19 152 31 300 43 503 40 110 -2 218 -6 240 -9 371 -55 539 -105 845
-249 415 -195 818 -572 1067 -997 138 -235 254 -544 297 -785 3 -16 8 -41 10
-55 3 -14 8 -47 11 -75 4 -27 8 -61 10 -75 2 -14 6 -79 10 -145 4 -66 8 -124
9 -130 2 -6 40 -9 96 -7 l92 3 -6 127 c-4 70 -9 138 -11 152 -2 14 -7 48 -10
75 -16 137 -58 322 -111 486 -20 63 -39 119 -43 124 -4 6 -13 28 -20 50 -25
72 -120 264 -182 368 -340 565 -862 988 -1473 1192 -182 61 -309 91 -511 119
-22 3 -60 8 -85 12 -44 6 -426 14 -432 9z"/>
<path d="M3428 4375 c-2 -1 -46 -5 -98 -8 -241 -15 -540 -97 -775 -212 -108
-52 -337 -190 -355 -214 -4 -5 -91 -74 -109 -87 -5 -4 19 -35 71 -93 l47 -52
98 74 c266 200 532 317 848 373 191 34 493 39 635 9 13 -2 42 -7 65 -10 22 -4
58 -11 80 -17 22 -5 50 -12 63 -14 13 -3 71 -21 130 -41 780 -262 1323 -1000
1341 -1826 l1 -38 93 3 92 3 -1 55 c-2 97 -7 153 -20 237 -7 46 -16 102 -19
125 -10 65 -72 273 -111 373 -230 581 -728 1051 -1324 1249 -101 34 -250 71
-328 81 -20 3 -46 7 -57 10 -49 10 -358 27 -367 20z"/>
<path d="M3488 3816 c-1 -2 -48 -6 -103 -9 -340 -21 -696 -174 -959 -412 -287
-260 -482 -654 -512 -1032 -12 -155 -23 -138 84 -141 50 -1 93 1 93 5 1 4 3
25 4 45 11 170 35 290 84 425 165 455 568 803 1040 898 170 35 354 38 514 10
15 -3 37 -7 50 -9 132 -23 339 -106 461 -184 398 -255 646 -683 660 -1141 l2
-46 94 0 95 0 -3 65 c-17 377 -173 744 -432 1018 -251 265 -554 425 -920 486
-19 4 -78 9 -130 12 -52 3 -100 7 -107 9 -6 2 -13 2 -15 1z"/>
<path d="M1913 3677 c-227 -235 -438 -628 -509 -948 -2 -10 -6 -29 -9 -41 -29
-128 -41 -230 -50 -393 l-3 -75 94 0 94 0 1 43 c3 107 12 191 35 327 56 327
257 723 491 969 13 13 23 27 23 31 0 8 -25 34 -86 92 l-40 38 -41 -43z"/>
<path d="M3399 3246 c-2 -2 -31 -7 -63 -11 -123 -14 -294 -82 -420 -168 -93
-63 -202 -173 -267 -270 -110 -164 -159 -307 -176 -504 l-6 -73 95 0 94 0 3
49 c1 28 4 60 6 73 13 69 18 87 32 133 97 305 364 530 688 580 60 9 193 7 250
-4 85 -17 97 -20 134 -32 52 -17 164 -73 215 -108 103 -71 206 -190 266 -309
24 -48 36 -62 48 -57 100 36 152 60 152 69 0 39 -133 246 -206 321 -139 142
-332 250 -522 291 -68 15 -312 30 -323 20z"/>
<path d="M3430 2682 c-201 -27 -369 -201 -395 -409 l-6 -53 95 0 c94 0 96 1
96 23 0 78 72 185 153 225 164 82 362 -12 399 -188 l12 -60 94 0 93 0 -5 49
c-12 110 -59 204 -140 284 -102 99 -253 149 -396 129z"/>
<path d="M4427 2409 c-43 -9 -81 -18 -85 -20 -4 -2 -6 -20 -5 -39 1 -19 2 -56
4 -82 l2 -48 95 0 95 0 -6 84 c-10 129 -7 126 -100 105z"/>
<path d="M3355 2008 c-245 -85 -378 -341 -301 -582 65 -205 235 -329 451 -329
128 1 228 41 321 131 247 237 153 663 -171 777 -78 28 -225 29 -300 3z m275
-198 c198 -101 197 -386 -1 -495 -47 -25 -64 -29 -129 -29 -57 0 -85 5 -117
22 -62 32 -106 75 -134 128 -34 66 -34 189 -1 252 74 139 242 193 382 122z"/>
<path d="M542 832 c-30 -23 -40 -83 -18 -116 29 -45 123 -44 141 1 11 30 -8
35 -32 8 -20 -21 -31 -25 -52 -20 -32 8 -41 21 -41 62 0 24 7 37 25 49 23 15
65 12 65 -6 0 -12 29 -20 35 -10 3 5 -3 18 -15 30 -25 25 -77 26 -108 2z"/>
<path d="M1083 833 c-4 -10 -11 -22 -17 -26 -8 -6 -7 -10 2 -14 6 -2 12 -22
12 -43 0 -21 3 -45 6 -54 7 -17 54 -22 54 -6 0 6 -7 10 -15 10 -11 0 -15 12
-15 45 0 33 4 45 15 45 8 0 15 5 15 10 0 6 -7 10 -15 10 -8 0 -15 6 -15 14 0
23 -19 29 -27 9z"/>
<path d="M1400 818 c0 -25 -3 -29 -12 -20 -18 18 -53 15 -71 -6 -23 -25 -21
-68 3 -92 22 -22 66 -27 73 -7 4 10 6 10 6 0 1 -7 8 -13 16 -13 12 0 15 16 15
85 0 69 -3 85 -15 85 -10 0 -15 -10 -15 -32z m-10 -47 c15 -30 12 -49 -11 -61
-25 -14 -49 2 -49 34 0 43 41 61 60 27z"/>
<path d="M1530 767 l0 -84 49 -1 c55 -1 68 8 77 55 8 43 -26 78 -67 69 -26 -5
-29 -3 -29 19 0 16 -6 25 -15 25 -12 0 -15 -16 -15 -83z m88 11 c30 -30 -2
-93 -36 -71 -21 13 -27 50 -12 69 15 17 32 18 48 2z"/>
<path d="M1890 765 l0 -85 65 0 c37 0 65 4 65 10 0 10 -32 14 -77 10 -19 -1
-23 4 -23 29 0 30 1 31 45 31 25 0 45 5 45 10 0 6 -8 10 -17 11 -10 1 -29 2
-43 2 -18 2 -26 9 -28 25 -2 15 1 23 10 21 35 -4 88 2 88 11 0 6 -28 10 -65
10 l-65 0 0 -85z"/>
<path d="M2480 765 c0 -69 3 -85 15 -85 12 0 15 16 15 85 0 69 -3 85 -15 85
-12 0 -15 -16 -15 -85z"/>
<path d="M690 744 c0 -50 3 -64 15 -64 11 0 15 12 15 44 0 37 5 48 27 64 l26
19 -41 0 -42 0 0 -63z"/>
<path d="M790 790 c-11 -11 -20 -31 -20 -45 0 -53 69 -85 105 -49 22 22 11 30
-20 14 -20 -11 -27 -11 -40 0 -26 22 -16 31 30 27 41 -3 45 -2 45 18 0 49 -64
71 -100 35z m68 -17 c2 -9 -7 -13 -28 -13 -28 0 -31 2 -20 15 15 18 41 16 48
-2z"/>
<path d="M929 790 c-23 -19 -23 -19 -3 -20 11 0 25 5 31 11 13 13 43 5 43 -10
0 -5 -18 -12 -40 -16 -27 -4 -41 -13 -45 -26 -11 -33 11 -48 69 -46 l53 1 -5
51 c-6 74 -52 98 -103 55z m71 -64 c0 -18 -39 -31 -52 -18 -15 15 0 32 28 32
14 0 24 -6 24 -14z"/>
<path d="M1180 790 c-11 -11 -20 -31 -20 -45 0 -52 69 -85 104 -49 23 23 8 39
-16 18 -14 -14 -23 -16 -35 -8 -25 15 -28 36 -7 34 11 -1 33 -2 51 -1 26 1 31
4 26 19 -19 52 -67 68 -103 32z m68 -18 c2 -8 -8 -12 -27 -12 -29 0 -39 9 -25
23 10 10 47 2 52 -11z"/>
<path d="M1675 793 c4 -10 15 -42 25 -70 19 -52 19 -53 -1 -63 -24 -14 -25
-30 0 -30 25 0 35 14 65 94 30 80 31 86 11 86 -8 0 -15 -8 -15 -18 0 -10 -4
-22 -9 -28 -5 -5 -11 -18 -13 -29 l-5 -20 -7 20 c-5 11 -12 32 -18 48 -6 15
-17 27 -25 27 -10 0 -13 -6 -8 -17z"/>
<path d="M2040 764 c0 -68 11 -82 65 -82 l45 1 0 64 c0 49 -3 63 -15 63 -11 0
-15 -12 -15 -49 0 -35 -4 -51 -16 -55 -26 -10 -34 3 -34 55 0 37 -4 49 -15 49
-11 0 -15 -12 -15 -46z"/>
<path d="M2200 790 c-11 -11 -20 -31 -20 -45 0 -52 69 -85 104 -49 20 20 20
34 1 34 -8 0 -15 -4 -15 -9 0 -15 -32 -22 -47 -10 -19 16 -13 59 10 73 15 9
21 7 33 -8 10 -14 17 -17 25 -9 15 15 -16 43 -47 43 -13 0 -33 -9 -44 -20z"/>
<path d="M2335 790 c-18 -19 -17 -20 1 -20 11 0 25 5 31 11 13 13 43 6 43 -9
0 -6 -20 -15 -45 -21 -34 -8 -45 -16 -45 -31 0 -26 17 -34 78 -36 46 -2 52 1
46 15 -3 9 -6 33 -5 53 1 28 -3 40 -18 47 -31 17 -66 13 -86 -9z m75 -64 c0
-19 -39 -31 -53 -17 -9 9 -8 14 3 21 22 14 50 12 50 -4z"/>
<path d="M2520 805 c0 -3 11 -33 25 -68 l26 -62 -21 -17 c-25 -20 -25 -28 -1
-28 25 0 35 14 65 94 30 78 31 86 13 86 -8 0 -20 -21 -28 -47 l-15 -48 -18 48
c-11 26 -25 47 -32 47 -8 0 -14 -2 -14 -5z"/>
<path d="M2670 718 c0 -72 3 -88 15 -88 11 0 15 11 15 37 0 29 3 34 12 25 36
-36 94 9 84 64 -7 39 -29 52 -82 52 l-44 -1 0 -89z m81 62 c22 -13 25 -52 5
-69 -35 -29 -76 35 -44 67 15 15 15 15 39 2z"/>
<path d="M533 573 c-4 -10 -11 -22 -17 -26 -8 -6 -7 -10 2 -14 7 -3 12 -25 12
-59 0 -41 4 -54 15 -54 11 0 15 13 15 54 0 34 5 56 13 59 9 4 8 8 -3 16 -12 9
-12 11 3 17 9 3 14 10 11 15 -9 16 -44 10 -51 -8z"/>
<path d="M1120 505 c0 -69 3 -85 15 -85 12 0 15 14 15 62 l0 61 40 -61 c56
-88 70 -83 70 23 0 69 -3 85 -15 85 -12 0 -15 -14 -15 -62 l0 -61 -40 61 c-56
88 -70 83 -70 -23z"/>
<path d="M1800 505 c0 -69 3 -85 15 -85 10 0 15 11 15 35 0 35 0 35 45 35 50
0 72 23 59 63 -10 31 -22 37 -81 37 l-53 0 0 -85z m88 59 c17 -3 22 -10 20
-27 -2 -18 -11 -23 -40 -25 -36 -3 -38 -2 -38 26 0 30 12 35 58 26z"/>
<path d="M2200 580 c0 -5 7 -10 15 -10 8 0 15 5 15 10 0 6 -7 10 -15 10 -8 0
-15 -4 -15 -10z"/>
<path d="M2563 583 c-7 -3 -13 -11 -13 -18 0 -7 -6 -16 -12 -18 -10 -4 -10 -7
-1 -14 6 -5 13 -31 15 -58 3 -46 5 -50 31 -53 29 -4 37 12 12 22 -10 3 -15 19
-15 46 0 29 4 40 15 40 8 0 15 5 15 10 0 6 -6 10 -14 10 -8 0 -16 8 -18 18 -2
11 -9 17 -15 15z"/>
<path d="M600 484 c0 -49 3 -64 14 -64 11 0 16 14 18 47 2 38 8 50 26 59 28
14 19 21 -25 22 l-33 1 0 -65z"/>
<path d="M700 530 c-11 -11 -20 -31 -20 -45 0 -14 9 -34 20 -45 11 -11 31 -20
45 -20 14 0 34 9 45 20 11 11 20 31 20 45 0 14 -9 34 -20 45 -11 11 -31 20
-45 20 -14 0 -34 -9 -45 -20z m68 -12 c32 -32 1 -89 -37 -68 -26 13 -28 55 -3
69 22 13 26 13 40 -1z"/>
<path d="M830 485 c0 -51 3 -65 15 -65 11 0 15 12 15 49 0 35 4 51 16 55 26
10 34 -3 34 -55 0 -37 4 -49 15 -49 11 0 15 12 15 49 0 35 4 51 16 55 26 10
34 -3 34 -55 0 -37 4 -49 15 -49 19 0 21 100 3 118 -14 14 -54 16 -63 2 -4 -6
-13 -5 -25 3 -16 9 -24 9 -40 -1 -12 -7 -20 -8 -20 -2 0 5 -7 10 -15 10 -12 0
-15 -14 -15 -65z"/>
<path d="M1310 530 c-11 -11 -20 -31 -20 -45 0 -14 9 -34 20 -45 11 -11 31
-20 45 -20 14 0 34 9 45 20 11 11 20 31 20 45 0 14 -9 34 -20 45 -11 11 -31
20 -45 20 -14 0 -34 -9 -45 -20z m68 -12 c30 -30 -2 -93 -36 -71 -21 13 -27
50 -12 69 15 17 32 18 48 2z"/>
<path d="M1440 504 c0 -68 11 -82 65 -82 l45 1 0 64 c0 49 -3 63 -15 63 -12 0
-15 -11 -13 -46 1 -30 -4 -49 -13 -55 -25 -16 -34 -4 -37 49 -2 37 -7 52 -18
52 -10 0 -14 -12 -14 -46z"/>
<path d="M1580 485 c0 -51 3 -65 15 -65 11 0 15 12 15 49 0 35 4 51 16 55 26
10 34 -3 34 -55 0 -38 4 -49 15 -49 13 0 15 11 13 56 -3 66 -23 88 -58 66 -12
-7 -20 -8 -20 -2 0 5 -7 10 -15 10 -12 0 -15 -14 -15 -65z"/>
<path d="M1960 484 c0 -49 3 -64 14 -64 11 0 16 14 18 47 2 39 7 50 28 60 14
7 23 13 20 14 -3 1 -22 3 -42 4 l-38 4 0 -65z"/>
<path d="M2080 543 c-63 -23 -43 -123 25 -123 14 0 34 9 45 20 50 50 -2 127
-70 103z m48 -25 c32 -32 1 -89 -37 -68 -26 13 -28 55 -3 69 22 13 26 13 40
-1z"/>
<path d="M2200 471 c0 -54 -4 -81 -12 -84 -7 -2 -9 -8 -5 -13 4 -4 16 -3 25 2
24 16 31 174 7 174 -12 0 -15 -15 -15 -79z"/>
<path d="M2270 530 c-11 -11 -20 -31 -20 -45 0 -53 69 -85 105 -49 22 22 11
30 -20 14 -20 -11 -27 -11 -40 0 -25 21 -17 29 27 27 34 -2 43 2 46 16 5 25
-26 57 -55 57 -12 0 -32 -9 -43 -20z m68 -17 c2 -9 -7 -13 -27 -13 -31 0 -42
14 -18 23 19 8 40 3 45 -10z"/>
<path d="M2410 530 c-41 -41 -13 -110 46 -110 19 0 54 28 54 43 0 13 -23 7
-35 -9 -18 -26 -57 -1 -53 33 4 34 35 54 51 33 16 -20 37 -23 37 -5 0 35 -69
46 -100 15z"/>
</g>
</svg>
